<?xml version="1.0" standalone="no"?>
<!DOCTYPE svg PUBLIC "-//W3C//DTD SVG 20010904//EN"
 "http://www.w3.org/TR/2001/REC-SVG-20010904/DTD/svg10.dtd">
<svg version="1.0" xmlns="http://www.w3.org/2000/svg"
 width="701.000000pt" height="701.000000pt" viewBox="0 0 701.000000 701.000000"
 preserveAspectRatio="xMidYMid meet">
<metadata>
Created by potrace 1.11, written by Peter Selinger 2001-2013
</metadata>
<g transform="translate(0.000000,701.000000) scale(0.100000,-0.100000)"
fill="#000000" stroke="none">
<path d="M3376 6994 c-14 -36 -7 -46 28 -41 19 3 39 0 44 -5 5 -5 19 -5 35 1
16 6 29 7 32 1 3 -5 -5 -12 -19 -16 -13 -3 -27 -13 -30 -21 -6 -14 -9 -13 -27
3 -18 16 -19 16 -13 1 3 -10 1 -17 -5 -17 -6 0 -11 -7 -11 -15 0 -8 -7 -15
-16 -15 -11 0 -14 -6 -9 -20 7 -23 -7 -27 -25 -6 -6 8 -17 13 -25 10 -7 -3
-16 0 -20 6 -4 7 -17 2 -37 -15 -32 -27 -58 -33 -58 -12 0 9 -2 9 -8 -1 -5 -7
-16 -10 -25 -6 -10 3 -24 1 -32 -6 -8 -7 -15 -9 -15 -4 0 5 -5 1 -11 -8 -11
-20 -50 -23 -81 -7 -27 14 -43 -2 -34 -35 4 -18 13 -26 29 -26 12 0 27 -4 34
-8 23 -15 16 -112 -8 -112 -6 0 -8 8 -4 19 9 30 -17 42 -92 40 -39 -1 -78 3
-88 8 -24 14 -52 5 -58 -18 -8 -30 17 -40 97 -42 45 -1 75 -6 73 -12 -2 -5 3
-16 10 -24 11 -10 12 -16 3 -21 -9 -6 -9 -9 1 -12 12 -4 12 -7 0 -21 -9 -12
-17 -14 -26 -7 -8 7 -18 2 -34 -16 -12 -13 -25 -23 -30 -20 -4 3 -13 -6 -20
-21 -9 -19 -15 -23 -23 -15 -9 9 -16 8 -30 -5 -14 -12 -21 -13 -32 -4 -11 10
-23 8 -56 -9 -22 -11 -45 -18 -50 -15 -6 3 -10 1 -10 -4 0 -15 -33 -14 -48 1
-9 9 -12 9 -12 -1 0 -7 -6 -11 -14 -8 -8 3 -20 -1 -28 -10 -7 -9 -28 -22 -47
-30 -30 -13 -35 -12 -52 3 -10 9 -19 13 -19 9 0 -4 -9 0 -20 10 -20 18 -21 18
-36 -3 -8 -12 -21 -20 -27 -16 -7 3 -3 -2 8 -11 12 -10 29 -14 43 -10 19 5 23
2 20 -12 -2 -10 -11 -17 -21 -17 -9 1 -17 -2 -17 -7 0 -5 -4 -9 -10 -9 -5 0
-10 6 -10 14 0 23 -36 29 -63 11 -23 -14 -28 -14 -66 1 -22 9 -41 22 -41 29 0
10 -13 12 -55 8 -30 -3 -60 -1 -67 4 -7 5 -28 9 -45 9 -21 -1 -33 4 -33 12 0
22 -30 25 -66 6 -28 -15 -38 -16 -53 -7 -18 11 -20 9 -23 -14 -4 -38 -22 -38
-43 0 l-18 33 -23 -23 c-23 -23 -74 -32 -74 -13 0 6 8 10 17 10 12 0 14 3 6
11 -8 8 -17 5 -35 -13 -12 -12 -22 -26 -20 -30 1 -5 -8 -8 -20 -8 -13 0 -30
-5 -38 -10 -15 -9 -16 -13 -19 -46 -1 -12 -9 -14 -44 -9 -40 6 -45 4 -62 -21
-12 -19 -14 -29 -7 -32 21 -7 12 -32 -15 -43 -31 -11 -58 -4 -47 12 5 8 3 9
-5 5 -7 -5 -10 -11 -7 -14 9 -8 -35 -52 -51 -52 -15 0 -17 -16 -3 -25 6 -4 8
-11 4 -16 -3 -5 -10 -7 -15 -3 -6 3 -13 -3 -16 -14 -3 -12 -18 -25 -34 -31
-16 -5 -29 -12 -29 -15 0 -3 7 -3 15 0 11 5 14 2 9 -12 -4 -11 -11 -24 -16
-30 -4 -6 -10 -25 -12 -43 -4 -38 -14 -50 -25 -32 -7 10 -11 8 -17 -10 -4 -13
-9 -35 -10 -49 -3 -46 -4 -50 -13 -50 -5 0 -7 10 -4 21 4 16 2 20 -8 17 -8 -3
-14 -15 -13 -27 0 -11 -3 -21 -7 -21 -5 0 -6 -6 -3 -14 3 -9 -4 -19 -17 -27
-21 -11 -22 -12 -5 -25 10 -7 15 -17 11 -23 -3 -6 -1 -11 4 -11 6 0 11 10 11
23 1 19 2 20 10 5 14 -23 2 -48 -23 -48 -19 0 -19 -1 -3 -19 14 -15 15 -24 7
-38 -7 -11 -11 -13 -11 -4 0 7 -6 11 -14 8 -7 -3 -18 -1 -24 5 -7 7 -12 0 -17
-21 -4 -17 -10 -31 -14 -31 -4 0 -7 -9 -8 -20 -2 -18 0 -18 13 -6 8 8 14 24
14 35 0 26 9 27 26 4 15 -20 19 -47 5 -39 -5 3 -12 -5 -15 -19 -4 -16 -11 -22
-21 -19 -9 4 -15 0 -15 -10 0 -9 -8 -16 -20 -16 -12 0 -26 -12 -35 -30 -9 -16
-11 -30 -6 -30 7 0 7 -9 1 -24 -7 -18 -5 -28 6 -37 13 -10 12 -15 -6 -34 -11
-12 -20 -25 -20 -31 0 -5 -7 -18 -15 -28 -14 -19 -15 -18 -24 5 -7 17 -10 19
-10 6 -1 -9 -12 -27 -26 -39 -34 -30 -20 -43 21 -19 26 16 34 17 34 6 0 -7
-24 -25 -52 -39 -29 -14 -47 -25 -41 -26 9 0 10 -7 3 -26 -6 -14 -10 -40 -10
-57 0 -18 -8 -41 -16 -52 -16 -20 -16 -19 -11 5 3 14 9 36 13 50 7 22 6 24 -9
11 -9 -7 -17 -22 -17 -33 0 -30 -20 -60 -35 -54 -8 3 -17 1 -20 -3 -2 -5 4
-11 15 -14 20 -5 29 -37 10 -37 -5 0 -10 5 -10 10 0 19 -30 10 -62 -20 -18
-17 -25 -27 -15 -24 10 4 17 1 17 -5 0 -21 -29 -68 -45 -74 -17 -7 -20 -43 -4
-52 6 -4 8 -13 5 -20 -2 -7 6 -18 20 -25 22 -12 23 -15 9 -30 -14 -15 -13 -17
6 -16 12 1 24 -5 27 -13 3 -10 0 -12 -14 -7 -16 6 -15 4 4 -14 12 -11 22 -29
22 -40 0 -10 5 -22 12 -26 8 -5 9 -2 5 9 -8 21 2 49 15 41 5 -3 7 -23 3 -45
-4 -21 -3 -39 2 -39 5 0 9 -9 10 -20 1 -11 14 -35 30 -55 26 -32 29 -34 41
-18 13 17 13 17 12 -2 -4 -33 -1 -38 14 -26 20 17 62 -35 45 -55 -6 -8 -16
-11 -23 -7 -6 4 -5 -1 2 -10 8 -9 11 -21 8 -26 -4 -6 -1 -20 6 -32 10 -17 10
-23 1 -26 -14 -5 -3 -19 32 -39 18 -10 20 -32 3 -27 -5 2 -8 -4 -8 -13 0 -13
3 -14 15 -4 27 22 43 5 39 -42 -5 -62 -13 -88 -36 -121 -17 -24 -19 -33 -10
-48 7 -10 12 -30 12 -45 0 -17 6 -28 19 -31 21 -5 18 -27 -6 -51 -7 -7 -13
-26 -13 -41 0 -16 -12 -41 -29 -60 -25 -28 -28 -37 -20 -58 12 -32 12 -36 -5
-30 -17 7 -30 -19 -27 -53 2 -20 0 -22 -9 -13 -10 9 -16 8 -27 -3 -8 -8 -26
-14 -40 -14 -21 0 -24 -2 -13 -15 9 -11 9 -15 1 -15 -7 0 -9 -5 -6 -10 4 -6
11 -8 16 -5 18 12 9 -32 -11 -50 -11 -10 -20 -23 -20 -28 0 -6 -9 -21 -21 -33
-16 -17 -19 -26 -10 -42 7 -13 7 -22 -1 -30 -7 -7 -9 -12 -5 -12 3 0 -5 -17
-19 -37 -13 -20 -22 -43 -20 -50 4 -8 -5 -18 -19 -23 -28 -11 -34 -22 -9 -18
26 5 27 -17 2 -31 -16 -8 -24 -22 -26 -47 -1 -20 -5 -40 -8 -45 -6 -11 -24
-12 -23 -1 4 26 1 24 -62 -33 -9 -8 -25 -15 -37 -15 -17 0 -22 -6 -22 -25 0
-22 -3 -24 -19 -15 -21 11 -37 -2 -26 -19 3 -6 0 -13 -8 -18 -7 -4 -18 -20
-24 -35 -8 -17 -18 -26 -27 -22 -9 3 -19 -6 -29 -25 -17 -34 -14 -41 23 -41
21 0 26 -4 25 -27 0 -15 6 -28 15 -31 12 -4 13 -2 3 9 -7 7 -13 17 -13 21 0
11 38 10 60 -2 22 -12 16 -40 -9 -40 -10 0 -12 -3 -5 -8 6 -4 14 -32 17 -63 8
-67 14 -86 33 -93 8 -3 14 -13 14 -21 0 -10 -5 -13 -12 -9 -7 4 -5 -1 4 -12
15 -17 15 -21 2 -39 -8 -11 -14 -31 -12 -45 1 -14 -1 -30 -4 -35 -4 -6 1 -11
10 -12 25 -3 98 -21 89 -22 -4 0 0 -9 10 -19 21 -22 86 -43 128 -42 25 0 59
-3 98 -9 5 0 5 -11 2 -22 -5 -15 -4 -19 4 -14 27 16 60 -5 81 -52 11 -26 17
-49 13 -52 -5 -3 -8 -39 -8 -80 1 -51 -3 -75 -12 -78 -7 -3 -11 -9 -8 -14 7
-10 -21 -78 -41 -100 -17 -19 -14 -56 7 -104 20 -43 30 -51 74 -59 59 -11 92
-32 103 -65 13 -36 2 -48 -48 -53 -38 -3 -40 -5 -40 -44 0 -16 4 -23 11 -18 6
3 21 1 33 -6 17 -9 33 -9 61 -1 26 7 43 7 51 1 8 -8 13 0 18 30 6 39 20 52 29
28 4 -10 6 -10 6 0 2 20 19 14 27 -10 3 -13 13 -31 21 -40 13 -15 13 -19 -6
-39 -12 -13 -21 -19 -21 -14 0 4 -8 1 -19 -9 -16 -14 -20 -15 -30 -2 -10 12
-17 13 -39 3 l-26 -12 39 -5 c22 -3 48 -2 57 2 31 15 108 -34 108 -67 0 -7
-26 -38 -58 -71 -41 -41 -58 -67 -58 -84 1 -16 -4 -24 -13 -22 -8 2 -11 -3 -8
-12 4 -9 -1 -23 -10 -32 -15 -15 -18 -15 -31 2 -12 15 -14 16 -9 2 5 -14 -27
-125 -53 -183 -5 -11 -12 -34 -15 -51 -3 -17 -19 -43 -34 -58 -26 -25 -29 -33
-28 -102 l1 -74 26 2 c31 2 83 -28 78 -44 -3 -7 -12 -16 -21 -22 -13 -9 -20
-6 -32 12 -9 12 -22 22 -28 22 -7 0 -4 -5 6 -11 14 -8 16 -14 6 -25 -6 -8 -18
-14 -26 -14 -8 0 -11 -4 -8 -10 3 -5 1 -19 -5 -30 -8 -14 -8 -26 1 -41 10 -19
17 -21 68 -16 31 3 77 15 104 27 45 20 67 20 67 -1 0 -5 -7 -9 -16 -9 -10 0
-14 -6 -10 -15 3 -8 -2 -21 -10 -30 -14 -13 -13 -15 5 -15 12 0 21 6 21 16 0
8 5 24 10 35 9 16 14 17 30 7 15 -10 27 -10 55 0 41 15 58 8 49 -20 -4 -15 -2
-19 11 -16 10 1 21 10 25 18 4 8 14 28 21 44 8 15 23 32 36 37 16 6 23 19 28
53 6 37 11 46 27 46 17 0 19 5 14 25 -6 25 13 58 36 61 4 1 13 2 19 3 6 0 8
10 4 21 -5 16 -2 20 19 20 19 0 27 7 32 25 3 13 15 27 27 31 33 10 93 79 121
138 14 30 26 60 26 65 0 6 7 11 15 11 11 0 15 11 15 40 0 22 5 40 10 40 6 0
10 9 10 20 0 12 8 35 17 53 20 38 23 49 24 107 1 25 4 49 7 55 3 5 7 23 9 40
7 79 37 222 51 243 10 16 12 26 5 30 -14 9 -23 81 -12 88 5 3 1 16 -9 28 -25
32 -19 120 8 113 12 -3 17 0 13 8 -5 16 34 58 46 50 5 -2 11 2 15 10 3 8 1 17
-4 20 -19 12 -11 53 12 61 21 6 50 -16 61 -49 3 -9 7 -9 19 0 8 7 18 9 22 5 4
-4 13 1 21 11 12 16 13 16 18 -3 4 -15 13 -20 40 -20 20 0 38 4 42 10 3 5 12
7 19 4 8 -3 15 4 18 20 5 24 3 25 -65 28 -50 2 -71 -1 -74 -10 -4 -9 -9 -10
-18 -2 -9 8 -15 8 -20 0 -8 -14 -25 -3 -25 17 0 10 6 14 18 11 11 -3 19 0 19
8 0 7 -4 11 -9 8 -17 -11 -28 7 -16 26 9 14 16 16 31 9 31 -17 47 -3 47 41 0
29 4 40 15 40 8 0 15 7 15 17 0 9 7 23 15 32 33 35 64 79 59 83 -9 10 56 140
90 180 19 22 36 50 38 61 2 12 14 27 27 33 13 7 26 16 30 21 11 17 73 43 102
43 26 0 30 5 44 55 22 73 35 85 96 85 28 0 59 5 70 10 16 9 21 7 27 -11 8 -20
1 -92 -13 -135 -6 -20 -2 -23 44 -29 l51 -7 0 -45 c0 -40 -2 -44 -22 -43 -41
4 -59 0 -53 -10 3 -5 1 -10 -5 -10 -6 0 -2 -13 9 -29 12 -16 18 -36 15 -44 -3
-8 0 -18 6 -22 16 -10 -16 -31 -61 -39 -38 -7 -48 -20 -69 -88 -8 -27 -17 -38
-31 -38 -10 0 -19 3 -19 8 0 4 -10 7 -23 7 -13 0 -24 -5 -24 -12 0 -7 4 -10 9
-7 4 3 8 -4 8 -14 0 -16 -5 -19 -22 -14 -20 5 -21 3 -11 -10 10 -12 9 -18 -5
-34 -20 -22 -28 -100 -11 -120 16 -19 3 -48 -17 -40 -14 5 -14 4 -5 -7 9 -11
8 -17 -3 -26 -8 -7 -17 -23 -20 -37 -6 -21 2 -33 48 -75 31 -28 54 -56 53 -62
-1 -6 3 -11 10 -12 6 0 15 -3 19 -7 4 -5 13 1 21 12 8 11 24 20 35 20 21 0 21
1 3 14 -12 8 -16 19 -11 31 6 16 9 15 30 -8 17 -18 31 -25 48 -22 22 4 25 1
27 -33 1 -20 3 -43 3 -50 1 -6 6 -11 12 -10 24 5 66 -13 66 -28 0 -8 -4 -12
-10 -9 -6 3 -7 -1 -4 -10 12 -31 92 -47 112 -22 6 6 12 30 13 52 4 45 28 70
59 60 17 -5 18 -10 9 -27 -14 -25 -4 -35 17 -17 14 11 18 12 22 1 5 -16 52 24
52 44 0 7 9 18 20 24 11 6 20 8 20 4 0 -4 8 1 19 10 25 23 38 195 21 282 -10
49 -9 64 4 88 8 16 13 33 10 38 -3 4 3 8 13 9 20 0 72 59 52 59 -8 0 -5 7 6
20 10 11 14 20 8 20 -5 0 -14 17 -19 38 l-9 37 -22 -23 c-30 -29 -51 -28 -63
4 -15 39 -13 67 5 60 12 -4 13 -2 3 13 -6 11 -8 26 -3 37 8 18 8 18 12 1 5
-18 5 -18 19 0 7 10 13 29 14 43 0 20 -2 22 -11 10 -9 -12 -10 -11 -6 7 3 13
1 26 -4 29 -17 10 -9 26 11 21 11 -3 25 2 32 11 10 12 10 14 1 8 -9 -5 -13 -1
-13 10 0 17 -1 16 -13 -1 -10 -13 -16 -15 -21 -6 -4 6 -3 17 2 24 5 7 14 28
21 47 l11 35 -20 -25 c-28 -35 -31 6 -4 58 7 15 14 36 14 47 1 17 3 16 16 -7
20 -38 27 -35 21 9 -3 23 0 48 9 66 11 21 12 32 4 42 -14 17 8 26 34 13 13 -7
16 -7 11 1 -9 15 13 41 29 35 8 -3 16 2 20 11 3 9 2 13 -4 10 -6 -3 -10 5 -10
19 0 30 10 57 19 52 3 -2 12 2 19 10 11 12 10 14 -3 14 -17 0 -21 25 -5 35 5
3 10 1 10 -6 0 -7 3 -9 7 -6 3 4 7 26 7 49 1 45 20 62 31 27 7 -20 8 -20 17
-5 5 9 13 14 19 11 8 -5 32 40 29 55 0 3 -14 3 -30 2 -17 -2 -30 1 -30 7 0 6
8 11 18 11 27 1 51 25 58 59 8 41 20 47 45 25 19 -17 46 -25 94 -28 15 -1 21
6 23 29 4 34 20 58 33 49 12 -7 27 -70 30 -124 3 -59 13 -70 63 -70 43 0 93
-26 69 -36 -7 -3 -13 -10 -13 -16 0 -20 -60 -68 -84 -68 -14 0 -28 -4 -31 -10
-3 -6 1 -10 9 -10 9 0 13 -6 10 -14 -4 -11 0 -13 15 -9 35 9 24 -16 -11 -26
-18 -5 -28 -10 -21 -10 7 -1 17 -10 23 -21 9 -16 5 -25 -21 -50 -17 -16 -35
-27 -40 -24 -5 3 -9 -2 -9 -11 0 -8 -7 -18 -15 -21 -10 -4 -15 -21 -15 -54 0
-27 -5 -52 -10 -55 -6 -4 -8 -11 -5 -16 4 -5 -1 -16 -10 -25 -12 -12 -13 -19
-4 -30 9 -11 8 -15 -5 -20 -9 -3 -13 -10 -10 -15 3 -5 -3 -22 -13 -39 -16 -28
-16 -31 0 -47 11 -11 17 -13 17 -5 0 7 9 12 20 12 13 0 18 5 14 15 -4 8 -2 15
4 15 16 0 34 -28 26 -41 -5 -9 -2 -10 10 -6 10 4 23 7 29 7 7 0 6 4 -3 10 -12
8 -11 10 5 10 33 0 65 -28 65 -57 0 -20 -4 -24 -19 -20 -12 3 -27 -3 -37 -14
-14 -15 -19 -17 -26 -7 -6 10 -8 8 -8 -4 0 -10 5 -18 10 -18 6 0 10 -9 10 -20
0 -11 -5 -19 -12 -17 -7 1 -12 -5 -13 -13 0 -8 -7 -15 -15 -15 -8 0 -22 -13
-30 -30 -10 -20 -22 -30 -37 -29 -12 0 -20 -3 -17 -7 3 -5 -25 -43 -62 -86
l-66 -78 -3 -75 c-2 -41 0 -79 3 -85 3 -5 5 -25 3 -43 -3 -37 13 -62 39 -62
19 0 34 -25 31 -52 -3 -22 15 -31 60 -30 32 2 38 -2 43 -23 4 -14 11 -25 16
-25 6 0 10 -7 10 -15 0 -8 -4 -15 -10 -15 -5 0 -7 -7 -4 -15 7 -18 64 -9 81
14 28 38 36 43 57 36 55 -16 65 -13 72 19 4 17 7 56 6 86 -1 52 1 57 36 86 20
17 48 34 60 38 15 5 21 13 18 22 -7 19 4 18 33 -3 18 -12 22 -13 15 -2 -19 30
-15 50 8 47 20 -3 23 2 26 38 4 52 20 66 98 89 l61 18 -9 46 c-18 90 -18 117
-3 171 9 30 20 87 25 125 17 118 21 136 28 131 4 -2 5 18 4 45 -4 47 12 109
28 109 4 0 13 19 20 43 17 57 60 147 71 147 13 0 11 -14 -3 -28 -13 -13 -6
-14 114 -17 35 -1 67 -8 84 -20 23 -15 26 -15 21 -2 -8 21 16 39 39 30 16 -6
15 -3 -5 25 -19 27 -20 32 -6 32 13 0 12 4 -5 23 -17 18 -18 23 -6 25 8 2 24
-6 35 -17 20 -20 51 -19 51 1 0 6 8 7 17 4 10 -4 14 -4 10 0 -4 4 -2 13 3 20
6 6 10 16 9 20 -5 27 1 36 15 25 12 -10 13 -8 9 8 -6 24 1 25 45 10 26 -9 30
-15 29 -45 -1 -29 -4 -33 -21 -29 -19 6 -20 5 -4 -8 16 -13 15 -16 -15 -50
-23 -24 -46 -38 -73 -43 -21 -3 -42 -8 -46 -10 -3 -2 5 -25 18 -51 25 -45 25
-47 6 -65 -10 -10 -31 -21 -47 -24 -41 -7 -44 -14 -7 -14 39 0 40 -10 4 -63
-16 -23 -41 -63 -56 -89 -15 -27 -33 -48 -41 -48 -9 0 -15 -9 -15 -23 0 -12
-9 -30 -19 -39 -10 -9 -22 -34 -26 -57 -4 -23 -11 -41 -15 -41 -5 0 -10 -10
-12 -22 -2 -13 -10 -24 -19 -26 -19 -4 -34 27 -20 41 15 15 -6 47 -29 47 -13
0 -20 -7 -20 -19 0 -11 -4 -23 -10 -26 -5 -3 -9 -16 -8 -28 2 -26 -29 -77 -47
-77 -23 0 -29 -59 -9 -81 26 -29 43 -23 63 24 10 23 29 48 41 55 l23 14 -7
-61 c-5 -43 -2 -76 10 -117 21 -72 14 -141 -15 -165 -13 -10 -16 -19 -10 -21
8 -3 8 -11 -2 -28 -8 -14 -16 -27 -20 -30 -3 -3 -15 -30 -28 -60 -13 -30 -31
-64 -41 -75 -21 -24 -53 -120 -52 -157 0 -14 -8 -34 -19 -44 -10 -9 -19 -26
-19 -37 0 -11 -8 -25 -17 -32 -15 -11 -15 -18 -5 -51 11 -38 8 -59 -9 -49 -5
4 -9 -5 -9 -19 0 -25 -9 -31 -39 -27 -7 2 -10 -3 -6 -9 8 -14 -81 -54 -102
-46 -13 5 -14 4 -3 -9 7 -8 8 -15 3 -15 -5 0 -15 -17 -21 -38 -7 -22 -34 -61
-62 -91 -32 -33 -50 -61 -50 -76 0 -32 -31 -83 -47 -78 -16 6 -17 -23 -2 -33
7 -4 3 -14 -13 -28 -13 -11 -18 -17 -11 -12 19 13 16 3 -19 -66 -23 -43 -29
-63 -20 -66 6 -2 12 -12 12 -22 0 -10 5 -22 10 -25 6 -3 10 -17 10 -30 0 -13
5 -27 11 -31 6 -3 8 -15 6 -26 -3 -11 0 -21 9 -25 8 -3 14 -14 14 -24 0 -10 5
-19 11 -19 8 0 7 -5 -1 -15 -10 -13 -10 -19 4 -34 11 -12 13 -20 6 -23 -8 -2
-8 -11 -1 -30 7 -19 7 -28 -2 -32 -9 -3 -9 -5 0 -5 6 -1 9 -10 6 -20 -3 -14 6
-29 31 -52 20 -17 39 -42 42 -56 6 -23 10 -24 54 -18 42 6 48 4 63 -18 17 -27
60 -40 76 -24 7 7 12 5 17 -6 3 -9 11 -17 16 -17 6 0 5 6 -2 15 -10 13 -9 15
9 15 11 0 21 -3 21 -7 0 -5 5 -15 10 -23 9 -13 13 -11 29 10 13 17 36 28 71
35 48 9 53 13 67 50 8 22 15 49 14 60 0 24 25 65 40 65 6 0 17 7 25 15 9 8 11
15 5 15 -6 0 -11 4 -11 9 0 5 9 7 19 4 14 -3 23 3 33 24 8 15 20 27 26 26 7
-2 12 9 12 25 0 29 24 72 41 72 5 0 9 -12 10 -27 0 -26 1 -26 9 -7 5 12 18 29
30 37 14 10 17 16 9 19 -19 6 -2 40 18 36 10 -2 27 6 38 19 18 20 43 30 83 32
6 1 12 7 12 14 0 7 15 28 33 46 l34 32 15 -23 15 -22 12 22 c8 15 9 28 2 41
-9 17 -6 20 26 26 23 4 38 2 43 -5 6 -9 9 -9 15 -1 4 7 21 9 43 6 32 -5 34 -4
17 6 -19 12 -19 12 0 20 17 7 18 8 3 8 -10 1 -18 9 -18 19 0 13 2 14 9 3 7
-10 10 -10 13 -1 3 10 11 10 40 1 47 -15 77 0 70 35 -3 18 0 24 12 24 10 0 14
-4 11 -10 -3 -5 -2 -10 3 -10 5 0 12 -14 16 -30 6 -32 43 -56 60 -39 14 12 66
11 105 -2 35 -13 61 0 61 31 0 14 -13 18 -72 24 -81 7 -118 26 -118 58 l0 21
24 -22 c20 -19 24 -20 29 -6 4 8 10 14 14 13 17 -5 53 24 53 43 0 11 5 30 12
42 7 12 11 32 9 43 -2 18 2 21 22 17 18 -4 32 5 60 36 20 23 40 41 43 41 3 0
3 -13 -1 -29 -5 -24 -2 -32 16 -41 19 -11 21 -10 16 4 -4 10 -1 16 8 16 14 0
31 28 96 159 l21 44 -22 17 c-14 11 -20 22 -15 30 6 9 9 9 16 -1 7 -11 9 -10
9 4 0 19 15 23 25 7 9 -15 25 -2 25 21 0 11 5 17 10 14 6 -3 10 1 10 9 0 9 7
16 15 16 19 0 19 -1 -9 -55 -20 -36 -23 -51 -16 -77 5 -17 7 -35 3 -41 -3 -6
-1 -7 5 -4 14 9 42 -2 42 -17 0 -24 21 -34 53 -25 17 5 40 6 51 3 19 -6 19 -7
1 -20 -10 -8 -13 -14 -7 -14 7 0 26 -9 41 -21 l28 -21 54 28 c30 15 60 35 67
46 8 10 21 18 30 16 11 -2 28 14 49 47 31 50 31 50 30 178 -2 110 0 130 15
141 22 16 25 36 9 65 -10 18 -10 33 -1 69 11 44 10 46 -17 68 -21 17 -25 25
-16 34 8 9 8 20 1 42 -8 24 -7 33 8 51 12 14 13 17 3 9 -28 -21 -27 -2 2 52
28 51 29 59 25 151 -3 67 -10 104 -21 122 -13 20 -15 40 -11 98 4 53 2 75 -7
78 -9 4 -9 7 1 18 6 7 12 27 11 44 0 16 -3 24 -6 18 -7 -18 -33 -16 -33 3 0 8
5 12 10 9 6 -3 10 1 10 10 0 9 -4 14 -9 10 -17 -10 -22 13 -6 29 10 9 14 27
12 48 -5 39 -28 98 -39 98 -4 0 -9 12 -9 28 -1 15 -3 20 -6 10 -2 -10 -10 -15
-19 -11 -20 7 -18 72 3 97 10 12 11 15 3 9 -25 -23 -43 -16 -35 14 5 21 1 31
-17 45 -19 15 -21 19 -8 27 13 9 12 11 -2 16 -8 3 -24 22 -34 41 -10 19 -22
34 -25 34 -4 0 -6 14 -5 31 0 21 -4 34 -14 37 -12 4 -13 2 -2 -9 6 -7 12 -20
12 -29 -1 -20 -40 26 -40 47 0 13 -3 13 -16 2 -14 -11 -15 -9 -9 23 7 36 -3
52 -34 53 -16 0 -28 25 -12 25 11 0 4 27 -12 48 -7 9 -12 10 -17 2 -9 -15 -63
48 -56 66 3 9 -1 14 -11 14 -13 0 -14 3 -5 12 13 13 17 48 5 48 -3 0 -15 -7
-25 -17 -17 -15 -18 -14 -24 16 -5 22 -10 29 -18 22 -17 -15 -58 -2 -52 16 3
8 2 11 -4 8 -5 -3 -15 2 -22 10 -7 9 -21 24 -30 33 -10 9 -18 21 -18 28 0 6
-11 17 -25 24 -25 13 -25 14 -6 25 15 7 18 14 11 25 -8 13 -10 12 -10 -2 0
-28 -17 -21 -28 11 -8 21 -15 28 -29 25 -22 -6 -42 30 -53 93 -6 38 -4 43 14
49 12 4 24 12 29 18 5 7 12 5 22 -8 14 -18 16 -18 33 -3 12 11 36 17 68 17 28
0 58 7 69 16 19 14 19 15 -3 20 -12 4 -22 11 -22 16 0 6 -8 7 -17 3 -10 -4
-25 -8 -33 -9 -9 -1 -20 -5 -25 -8 -6 -3 -21 -1 -35 5 -14 6 -33 11 -44 11
-28 1 -47 64 -28 93 8 13 19 20 25 16 5 -3 7 -1 3 5 -3 6 -1 14 5 18 6 3 15 0
20 -7 15 -24 10 0 -7 32 -18 36 -11 51 11 23 14 -18 15 -18 6 6 -12 34 -8 79
9 110 12 23 12 24 -3 11 -15 -12 -17 -10 -17 13 0 23 3 26 20 21 19 -6 20 -3
16 47 -3 29 -5 56 -6 61 0 4 -7 7 -15 7 -19 0 -19 24 -1 43 9 9 11 19 5 28 -7
12 -9 11 -9 -2 0 -9 -6 -22 -14 -29 -12 -9 -18 -7 -33 9 -10 12 -29 21 -46 21
-15 0 -26 4 -23 9 7 11 -54 52 -66 45 -4 -3 -8 -14 -8 -25 0 -10 -4 -19 -9
-19 -5 0 -8 7 -7 17 0 10 -10 19 -29 24 -37 11 -59 37 -44 55 7 8 7 14 0 18
-6 4 -8 13 -5 20 4 11 -3 13 -33 9 -21 -3 -40 -7 -42 -9 -2 -2 -10 1 -18 7 -9
9 -13 8 -13 0 0 -6 -5 -11 -11 -11 -6 0 -9 9 -6 20 3 13 0 20 -9 20 -8 0 -11
-6 -7 -16 4 -12 2 -15 -8 -12 -9 3 -14 18 -13 41 1 26 -2 34 -12 30 -9 -3 -14
2 -14 12 0 9 -4 14 -9 11 -5 -3 -7 -15 -4 -26 8 -31 -5 -24 -23 13 -9 17 -22
35 -27 39 -8 4 -7 15 1 33 15 33 15 48 0 39 -8 -5 -10 3 -6 27 8 47 -1 89 -19
89 -9 0 -13 6 -9 15 4 13 -1 14 -35 9 -45 -7 -63 6 -53 39 3 9 1 17 -5 17 -6
0 -11 -10 -11 -22 0 -17 -3 -20 -9 -9 -5 8 -5 26 1 43 15 42 -15 163 -38 154
-16 -6 -34 14 -27 30 3 8 13 14 22 15 15 0 15 1 -1 7 -9 4 -31 20 -49 36 -25
23 -29 31 -18 35 11 4 13 13 8 31 -4 16 -7 19 -8 8 -1 -22 -24 -23 -40 -4 -10
12 -8 17 11 27 14 8 18 14 10 17 -6 2 -12 10 -12 17 0 7 -13 19 -29 26 -36 16
-50 43 -45 92 3 39 -8 49 -24 21 -8 -14 -11 -11 -21 17 -11 31 -12 32 -25 13
-14 -18 -16 -17 -31 19 -8 21 -20 35 -24 32 -10 -6 -41 21 -41 36 0 5 8 9 18
10 10 0 12 3 5 6 -7 2 -13 12 -13 21 0 13 -3 12 -19 -4 -12 -13 -15 -21 -7
-26 6 -5 1 -8 -11 -8 -14 0 -23 6 -23 15 0 9 -10 15 -22 16 -13 0 -17 3 -10 6
19 7 14 23 -5 17 -15 -5 -15 -3 1 10 11 9 26 16 33 16 7 0 13 5 13 10 0 6 -11
10 -25 10 -17 0 -28 7 -34 23 -12 30 -6 37 32 36 18 0 57 1 88 2 31 1 65 -3
76 -9 15 -8 30 -8 54 0 19 6 40 12 47 14 21 6 13 31 -10 30 -15 -1 -23 5 -22
15 1 15 -2 15 -25 3 -14 -8 -31 -14 -38 -14 -6 0 -13 -6 -16 -12 -3 -9 -10 -7
-21 7 -8 11 -16 17 -16 12 0 -4 -16 0 -36 8 -50 21 -61 19 -68 -10 l-6 -25
-25 22 c-30 26 -32 38 -5 38 11 0 20 7 20 15 0 18 28 34 51 28 11 -3 19 0 19
7 0 9 -10 11 -30 6 -29 -5 -30 -4 -23 22 9 38 6 65 -9 77 -18 13 -11 46 9 43
9 -2 18 3 21 11 3 8 0 11 -7 7 -21 -13 -11 16 12 34 17 14 25 16 37 7 8 -6 6
-1 -4 11 -11 12 -26 20 -33 18 -9 -4 -13 4 -13 23 0 35 -18 91 -36 112 -8 8
-14 23 -14 32 0 9 -6 16 -12 14 -7 -1 -12 6 -12 16 1 9 -2 17 -8 17 -5 0 -6 5
-3 10 3 6 0 10 -8 10 -25 0 -40 26 -27 49 7 14 7 21 0 21 -5 0 -10 -7 -10 -15
0 -20 -10 -19 -25 2 -15 20 -76 26 -88 9 -5 -7 -12 -5 -22 8 -15 19 -16 19
-45 -9 -26 -25 -33 -28 -50 -17 -24 14 -33 15 -25 2 9 -14 -32 -50 -57 -50
-17 0 -19 -3 -10 -12 8 -8 15 -8 24 -1 7 6 21 8 31 4 17 -6 16 -8 -8 -19 -15
-7 -35 -10 -45 -7 -9 3 -30 1 -45 -5 -22 -8 -25 -14 -17 -22 17 -17 15 -28 -7
-28 -13 0 -21 10 -26 33 -6 30 -7 31 -15 10 -5 -13 -12 -23 -16 -23 -5 0 -107
42 -174 72 -23 11 -23 12 -5 16 30 6 40 20 11 15 -18 -4 -26 -1 -26 9 0 18
-40 53 -41 35 0 -6 -4 -2 -10 11 -5 13 -14 20 -20 17 -6 -4 -8 -14 -5 -22 9
-22 -3 -36 -20 -22 -11 9 -11 15 -3 25 11 13 2 19 -23 15 -5 0 -8 19 -8 44 0
25 -4 45 -10 45 -5 0 -10 9 -10 20 0 13 -7 20 -20 20 -12 0 -20 7 -20 17 0 9
-3 13 -7 10 -7 -8 -33 11 -33 24 0 5 9 9 19 9 11 0 29 12 41 27 19 25 23 26
31 10 11 -18 49 -24 49 -7 0 6 -5 10 -11 10 -25 0 1 26 32 31 19 4 -45 7 -142
8 -153 1 -178 -1 -183 -15z m1234 -3714 c0 -5 7 -10 15 -10 21 0 39 -36 20
-44 -8 -3 -17 -1 -20 4 -3 5 -12 7 -20 3 -8 -3 -15 0 -15 6 0 6 -12 11 -26 11
-32 0 -27 22 7 31 35 10 39 10 39 -1z"/>
<path d="M3331 6894 c0 -11 3 -14 6 -6 3 7 2 16 -1 19 -3 4 -6 -2 -5 -13z"/>
<path d="M3650 6806 c0 -2 8 -10 18 -17 15 -13 16 -12 3 4 -13 16 -21 21 -21
13z"/>
<path d="M2732 6773 c3 -28 3 -28 88 -29 54 -1 88 2 92 10 6 8 8 8 8 -1 0 -8
13 -13 30 -13 30 0 37 13 21 39 -6 9 -11 10 -15 2 -5 -7 -12 -7 -26 1 -14 9
-22 9 -32 0 -9 -7 -19 -8 -28 -2 -28 18 -81 11 -101 -12 l-18 -23 -1 28 c0 15
-5 27 -11 27 -6 0 -9 -12 -7 -27z"/>
<path d="M4185 6710 c3 -5 11 -10 16 -10 6 0 7 5 4 10 -3 6 -11 10 -16 10 -6
0 -7 -4 -4 -10z"/>
<path d="M3872 6639 c2 -6 14 -16 26 -20 29 -11 28 -5 -4 16 -17 11 -25 12
-22 4z"/>
<path d="M3940 6625 c0 -8 4 -15 10 -15 5 0 7 7 4 15 -4 8 -8 15 -10 15 -2 0
-4 -7 -4 -15z"/>
<path d="M4048 6633 c7 -3 16 -2 19 1 4 3 -2 6 -13 5 -11 0 -14 -3 -6 -6z"/>
<path d="M1875 6410 c-3 -5 -1 -10 4 -10 6 0 11 5 11 10 0 6 -2 10 -4 10 -3 0
-8 -4 -11 -10z"/>
<path d="M2500 6409 c0 -5 5 -7 10 -4 6 3 10 8 10 11 0 2 -4 4 -10 4 -5 0 -10
-5 -10 -11z"/>
<path d="M2535 6399 c-11 -17 0 -20 21 -4 17 13 17 14 2 15 -9 0 -20 -5 -23
-11z"/>
<path d="M2265 6390 c3 -5 10 -10 16 -10 5 0 9 5 9 10 0 6 -7 10 -16 10 -8 0
-12 -4 -9 -10z"/>
<path d="M1660 6379 c0 -5 5 -7 10 -4 6 3 10 8 10 11 0 2 -4 4 -10 4 -5 0 -10
-5 -10 -11z"/>
<path d="M2325 6370 c-3 -5 -2 -10 4 -10 5 0 13 5 16 10 3 6 2 10 -4 10 -5 0
-13 -4 -16 -10z"/>
<path d="M1600 6345 c0 -5 5 -17 10 -25 5 -8 10 -10 10 -5 0 6 -5 17 -10 25
-5 8 -10 11 -10 5z"/>
<path d="M4530 6139 c0 -5 5 -7 10 -4 6 3 10 8 10 11 0 2 -4 4 -10 4 -5 0 -10
-5 -10 -11z"/>
<path d="M4800 6066 c0 -8 5 -18 10 -21 6 -3 10 3 10 14 0 12 -4 21 -10 21 -5
0 -10 -6 -10 -14z"/>
<path d="M1270 5990 c0 -5 -7 -10 -15 -10 -8 0 -15 -5 -15 -10 0 -7 6 -7 20 0
18 10 28 30 15 30 -3 0 -5 -4 -5 -10z"/>
<path d="M4647 5968 l-14 -33 36 -5 c20 -3 44 -2 54 2 13 7 17 4 17 -9 1 -14
4 -13 15 7 8 14 14 28 15 31 0 11 -47 16 -63 8 -10 -6 -16 -3 -20 11 -8 30
-25 24 -40 -12z"/>
<path d="M1030 5489 c0 -5 5 -7 10 -4 6 3 10 8 10 11 0 2 -4 4 -10 4 -5 0 -10
-5 -10 -11z"/>
<path d="M4968 5403 c6 -2 18 -2 25 0 6 3 1 5 -13 5 -14 0 -19 -2 -12 -5z"/>
<path d="M4970 5364 c0 -8 5 -12 10 -9 6 3 10 10 10 16 0 5 -4 9 -10 9 -5 0
-10 -7 -10 -16z"/>
<path d="M1006 5361 c-4 -5 -2 -12 3 -15 5 -4 12 -2 15 3 4 5 2 12 -3 15 -5 4
-12 2 -15 -3z"/>
<path d="M5000 5225 c0 -2 10 -10 23 -16 20 -11 21 -11 8 4 -13 16 -31 23 -31
12z"/>
<path d="M825 5160 c3 -5 11 -10 16 -10 6 0 7 5 4 10 -3 6 -11 10 -16 10 -6 0
-7 -4 -4 -10z"/>
<path d="M5381 4794 c0 -11 3 -14 6 -6 3 7 2 16 -1 19 -3 4 -6 -2 -5 -13z"/>
<path d="M5417 4789 c4 -13 8 -18 11 -10 2 7 -1 18 -6 23 -8 8 -9 4 -5 -13z"/>
<path d="M1030 4189 c0 -5 5 -7 10 -4 6 3 10 8 10 11 0 2 -4 4 -10 4 -5 0 -10
-5 -10 -11z"/>
<path d="M1025 4139 c-4 -6 -4 -13 -1 -16 3 -4 6 -1 6 6 0 7 5 9 12 5 7 -4 8
-3 4 4 -9 15 -13 15 -21 1z"/>
<path d="M5575 4049 c-8 -37 -5 -41 39 -42 20 -1 36 -5 36 -9 0 -19 21 -6 35
22 9 17 12 30 8 29 -15 -3 -73 14 -79 22 -12 19 -33 7 -39 -22z"/>
<path d="M5700 3883 c0 -22 2 -25 10 -13 13 20 13 40 0 40 -5 0 -10 -12 -10
-27z"/>
<path d="M5750 3799 c0 -5 5 -7 10 -4 6 3 10 8 10 11 0 2 -4 4 -10 4 -5 0 -10
-5 -10 -11z"/>
<path d="M894 3645 c-10 -8 -14 -15 -8 -15 6 0 17 7 24 15 16 19 9 19 -16 0z"/>
<path d="M5925 3640 c3 -5 8 -10 11 -10 2 0 4 5 4 10 0 6 -5 10 -11 10 -5 0
-7 -4 -4 -10z"/>
<path d="M6070 3460 c0 -5 5 -10 11 -10 5 0 7 5 4 10 -3 6 -8 10 -11 10 -2 0
-4 -4 -4 -10z"/>
<path d="M3768 3413 c7 -3 16 -2 19 1 4 3 -2 6 -13 5 -11 0 -14 -3 -6 -6z"/>
<path d="M780 3390 c-8 -5 -12 -12 -9 -15 4 -3 12 1 19 10 14 17 11 19 -10 5z"/>
<path d="M3785 3380 c-3 -5 -1 -10 4 -10 6 0 11 5 11 10 0 6 -2 10 -4 10 -3 0
-8 -4 -11 -10z"/>
<path d="M3540 3223 c0 -17 -6 -34 -12 -36 -7 -3 -3 -6 10 -6 30 -1 38 22 18
51 l-16 22 0 -31z"/>
<path d="M4783 3215 c0 -8 4 -12 9 -9 4 3 8 9 8 15 0 5 -4 9 -8 9 -5 0 -9 -7
-9 -15z"/>
<path d="M3846 3151 c-4 -7 -5 -15 -2 -18 9 -9 19 4 14 18 -4 11 -6 11 -12 0z"/>
<path d="M4672 3139 c2 -10 -10 -15 -42 -17 -24 -2 -50 -8 -57 -14 -10 -8 -13
-6 -13 6 0 22 -17 20 -30 -3 -13 -26 -13 -34 2 -29 7 3 19 -1 26 -9 19 -19 29
-16 36 10 l6 22 15 -22 c13 -18 23 -21 60 -18 34 3 47 0 52 -11 4 -11 8 -12
19 -3 8 7 27 12 42 13 17 1 28 7 30 19 5 24 -18 51 -31 38 -12 -12 -64 -3 -95
17 -19 12 -22 13 -20 1z"/>
<path d="M6225 3130 c3 -5 8 -10 11 -10 2 0 4 5 4 10 0 6 -5 10 -11 10 -5 0
-7 -4 -4 -10z"/>
<path d="M3701 3089 c-11 -19 -21 -37 -21 -41 0 -5 -6 -8 -14 -8 -30 0 -25
-29 9 -48 l33 -20 6 24 c7 28 23 32 28 7 2 -12 6 -14 11 -6 4 6 0 19 -9 27
-13 14 -14 16 0 16 22 0 31 21 14 34 -8 6 -19 20 -25 30 -10 19 -12 18 -32
-15z"/>
<path d="M465 2960 c-3 -5 -1 -10 4 -10 6 0 11 5 11 10 0 6 -2 10 -4 10 -3 0
-8 -4 -11 -10z"/>
<path d="M4606 2911 c-9 -9 -16 -21 -16 -26 0 -5 -8 -17 -17 -27 -15 -17 -15
-20 7 -40 22 -21 23 -21 36 -3 8 10 14 24 14 31 0 6 7 17 15 24 12 10 15 10
15 0 0 -8 3 -11 6 -7 10 10 -6 47 -25 57 -14 7 -23 5 -35 -9z"/>
<path d="M3437 2857 c-9 -7 -19 -31 -23 -54 -6 -38 -4 -43 13 -43 22 0 43 37
43 75 0 30 -12 38 -33 22z"/>
<path d="M3706 2827 c3 -10 9 -15 12 -12 3 3 0 11 -7 18 -10 9 -11 8 -5 -6z"/>
<path d="M510 2820 c0 -6 7 -10 15 -10 8 0 15 2 15 4 0 2 -7 6 -15 10 -8 3
-15 1 -15 -4z"/>
<path d="M2706 2771 c-3 -5 1 -11 9 -15 9 -3 15 0 15 9 0 16 -16 20 -24 6z"/>
<path d="M4602 2760 c0 -14 2 -19 5 -12 2 6 2 18 0 25 -3 6 -5 1 -5 -13z"/>
<path d="M2647 2753 c7 -18 30 -16 37 2 4 11 -1 14 -18 13 -15 -1 -22 -7 -19
-15z"/>
<path d="M3561 2718 c-15 -29 -9 -58 11 -57 10 0 10 2 1 6 -18 7 -16 23 1 23
8 0 18 5 22 12 4 6 3 8 -4 4 -6 -3 -12 3 -14 16 -4 23 -4 22 -17 -4z"/>
<path d="M500 2710 c0 -19 3 -21 12 -12 9 9 9 15 0 24 -9 9 -12 7 -12 -12z"/>
<path d="M2683 2702 c-18 -15 -33 -35 -33 -45 0 -21 24 -32 48 -21 9 4 20 6
25 6 8 -2 8 33 -1 65 l-7 23 -32 -28z"/>
<path d="M3810 2710 c0 -5 7 -7 15 -4 8 4 15 8 15 10 0 2 -7 4 -15 4 -8 0 -15
-4 -15 -10z"/>
<path d="M2500 2695 c-7 -9 -11 -17 -9 -20 3 -2 10 5 17 15 14 24 10 26 -8 5z"/>
<path d="M2760 2671 c0 -6 4 -13 10 -16 6 -3 7 1 4 9 -7 18 -14 21 -14 7z"/>
<path d="M2460 2650 c0 -5 5 -10 10 -10 6 0 10 5 10 10 0 6 -4 10 -10 10 -5 0
-10 -4 -10 -10z"/>
<path d="M3528 2648 c9 -9 9 -15 0 -25 -16 -20 6 -41 26 -24 17 14 15 39 -5
52 -20 13 -35 11 -21 -3z"/>
<path d="M3330 2626 c0 -14 4 -27 8 -30 5 -3 6 8 4 25 -5 35 -12 38 -12 5z"/>
<path d="M2775 2630 c-3 -6 1 -7 9 -4 18 7 21 14 7 14 -6 0 -13 -4 -16 -10z"/>
<path d="M4445 2590 c-3 -5 -2 -10 4 -10 5 0 13 5 16 10 3 6 2 10 -4 10 -5 0
-13 -4 -16 -10z"/>
<path d="M2756 2574 c-11 -8 -16 -14 -10 -14 13 0 39 18 34 24 -3 2 -14 -2
-24 -10z"/>
<path d="M3516 2572 c-5 -8 -4 -18 3 -25 16 -16 13 -37 -5 -37 -9 0 -18 9 -21
21 -4 15 -8 17 -14 8 -12 -20 9 -49 35 -49 17 0 25 8 34 36 9 29 8 35 -3 30
-8 -3 -15 2 -17 12 -3 13 -5 14 -12 4z"/>
<path d="M2582 2535 c-6 -14 -16 -25 -22 -25 -11 0 -50 -77 -42 -84 10 -10 43
-6 37 4 -3 6 1 10 9 10 9 0 16 7 16 15 0 8 4 15 10 15 14 0 42 59 36 76 -8 22
-32 16 -44 -11z"/>
<path d="M3735 2540 c3 -5 8 -10 11 -10 2 0 4 5 4 10 0 6 -5 10 -11 10 -5 0
-7 -4 -4 -10z"/>
<path d="M4375 2490 c-3 -5 -2 -10 4 -10 5 0 13 5 16 10 3 6 2 10 -4 10 -5 0
-13 -4 -16 -10z"/>
<path d="M3395 2440 c-3 -5 -1 -10 4 -10 6 0 11 5 11 10 0 6 -2 10 -4 10 -3 0
-8 -4 -11 -10z"/>
<path d="M4374 2406 c-9 -20 -9 -26 2 -30 21 -8 17 -39 -8 -71 -24 -30 -16
-57 18 -64 15 -3 16 -1 6 12 -11 13 -10 16 7 22 42 13 49 81 13 124 l-27 32
-11 -25z"/>
<path d="M4547 2343 c-3 -5 1 -14 9 -21 12 -10 14 -10 14 2 0 17 -16 30 -23
19z"/>
<path d="M4213 2313 c4 -3 1 -13 -6 -22 -11 -14 -10 -14 5 -2 16 12 16 31 1
31 -4 0 -3 -3 0 -7z"/>
<path d="M3337 2243 c-9 -14 -5 -63 5 -63 4 0 12 8 17 19 11 20 -10 63 -22 44z"/>
<path d="M2515 2190 c-4 -6 -13 -9 -20 -6 -11 4 -11 -1 -2 -27 l11 -32 13 34
c14 32 12 54 -2 31z"/>
<path d="M2384 2175 c-13 -33 3 -46 48 -39 53 8 52 8 38 33 -13 26 -77 30 -86
6z"/>
<path d="M4406 2043 c-6 -14 -5 -15 5 -6 7 7 10 15 7 18 -3 3 -9 -2 -12 -12z"/>
<path d="M3915 1930 c-3 -5 -1 -10 4 -10 6 0 11 5 11 10 0 6 -2 10 -4 10 -3 0
-8 -4 -11 -10z"/>
<path d="M602 1633 c2 -14 9 -28 16 -31 7 -2 10 2 6 11 -9 23 14 30 26 8 18
-34 70 -20 70 19 0 12 -2 12 -9 2 -6 -11 -10 -10 -15 5 -7 17 -8 17 -21 0 -11
-15 -13 -16 -19 -2 -3 8 -17 15 -31 15 -23 0 -26 -4 -23 -27z"/>
<path d="M758 1643 c-7 -25 1 -43 18 -43 9 0 14 11 14 30 0 33 -24 42 -32 13z"/>
<path d="M812 1632 c3 -26 5 -27 71 -30 42 -2 74 2 83 9 11 9 18 9 29 -1 13
-11 15 -8 15 20 0 28 -2 31 -15 20 -11 -9 -19 -9 -28 -2 -7 6 -45 11 -85 11
l-73 0 3 -27z"/>
<path d="M537 1643 c-4 -3 -7 -13 -7 -22 0 -12 2 -13 9 -3 6 10 10 10 21 -3
17 -21 30 -19 30 6 0 11 -4 18 -9 14 -5 -3 -12 -1 -16 5 -7 12 -19 13 -28 3z"/>
<path d="M5810 1610 c0 -5 5 -10 11 -10 5 0 7 5 4 10 -3 6 -8 10 -11 10 -2 0
-4 -4 -4 -10z"/>
<path d="M695 1370 c-3 -5 -2 -10 4 -10 5 0 13 5 16 10 3 6 2 10 -4 10 -5 0
-13 -4 -16 -10z"/>
<path d="M610 1345 c-10 -12 -8 -13 11 -10 31 6 43 20 20 22 -11 1 -25 -5 -31
-12z"/>
<path d="M3960 1350 c-9 -6 -10 -10 -3 -10 6 0 15 5 18 10 8 12 4 12 -15 0z"/>
<path d="M568 1333 c7 -3 16 -2 19 1 4 3 -2 6 -13 5 -11 0 -14 -3 -6 -6z"/>
<path d="M514 1316 c-10 -8 -16 -17 -13 -20 3 -4 17 2 30 13 27 23 13 28 -17
7z"/>
<path d="M440 1290 c0 -5 5 -10 11 -10 5 0 7 5 4 10 -3 6 -8 10 -11 10 -2 0
-4 -4 -4 -10z"/>
<path d="M4015 1289 c-4 -6 -5 -12 -2 -15 2 -3 7 2 10 11 7 17 1 20 -8 4z"/>
<path d="M288 1229 c-27 -15 -21 -29 7 -16 14 7 25 15 25 20 0 10 -11 8 -32
-4z"/>
<path d="M241 1204 c0 -11 3 -14 6 -6 3 7 2 16 -1 19 -3 4 -6 -2 -5 -13z"/>
<path d="M193 1193 c-13 -4 -19 -33 -8 -33 3 0 15 9 27 20 21 19 12 26 -19 13z"/>
<path d="M0 1117 c0 -35 1 -37 16 -23 14 14 14 18 0 38 -16 22 -16 22 -16 -15z"/>
<path d="M3927 1119 c7 -7 15 -10 18 -7 3 3 -2 9 -12 12 -14 6 -15 5 -6 -5z"/>
<path d="M5360 1080 c0 -16 5 -30 10 -30 6 0 10 6 10 14 0 8 3 21 6 30 4 11 1
16 -10 16 -11 0 -16 -9 -16 -30z"/>
<path d="M5401 1078 c-1 -33 18 -47 34 -25 9 12 14 14 23 5 9 -9 12 -8 12 5 0
9 5 17 10 17 6 0 10 -7 10 -15 0 -12 14 -15 65 -15 65 0 72 3 56 29 -6 10 -32
12 -105 10 -58 -3 -98 0 -100 6 -3 6 -5 -2 -5 -17z"/>
<path d="M1689 910 c-3 -34 4 -65 14 -72 12 -7 107 -5 123 3 9 5 34 4 97 -7
52 -9 124 4 131 22 3 9 0 25 -8 36 -14 20 -15 20 -23 -12 -5 -19 -15 -36 -22
-38 -10 -3 -12 2 -8 21 6 22 3 25 -24 29 -16 3 -41 -1 -54 -8 -13 -7 -26 -10
-29 -7 -3 3 -12 0 -21 -7 -12 -10 -16 -8 -24 11 -8 21 -10 22 -16 7 -6 -14
-11 -16 -27 -7 -13 7 -23 7 -27 2 -9 -14 -52 -36 -58 -29 -8 8 7 26 23 26 8 0
14 5 14 10 0 6 -8 10 -18 10 -10 0 -23 5 -30 12 -9 9 -12 9 -13 -2z"/>
<path d="M2219 870 l0 -25 -11 23 c-12 23 -38 30 -38 10 0 -9 -4 -8 -11 2 -8
11 -12 12 -16 3 -2 -7 -11 -13 -18 -13 -7 0 -16 6 -18 13 -3 6 -6 -1 -6 -18
-1 -22 2 -26 9 -15 8 12 11 12 27 -2 11 -11 24 -14 32 -9 7 5 31 4 52 0 21 -5
80 -8 130 -7 81 2 92 4 98 22 8 19 8 19 13 -2 4 -12 13 -22 22 -22 22 0 22 56
0 64 -21 8 -33 0 -45 -31 -10 -27 -29 -22 -29 8 0 11 -7 19 -17 20 -65 4 -100
3 -115 -4 -10 -4 -18 -4 -18 1 0 4 -9 8 -20 8 -15 0 -20 -7 -21 -26z"/>
<path d="M1155 464 c-10 -10 -13 -24 -9 -38 8 -27 6 -25 34 -28 27 -3 57 38
47 65 -8 22 -51 22 -72 1z"/>
<path d="M4282 428 c-7 -7 -12 -23 -12 -36 0 -21 2 -23 15 -12 12 10 21 10 41
1 31 -14 74 -15 74 -1 0 6 8 5 20 -2 15 -10 22 -10 31 -1 19 19 2 43 -30 43
-16 0 -33 4 -36 10 -4 6 -13 5 -25 -3 -16 -9 -24 -9 -40 1 -24 15 -23 15 -38
0z"/>
<path d="M1018 405 c-4 -19 2 -30 29 -51 37 -28 43 -26 63 24 16 41 5 52 -51
52 -31 0 -37 -4 -41 -25z"/>
<path d="M4046 423 c-3 -4 -6 -18 -6 -32 1 -24 2 -24 14 -8 16 21 26 22 26 2
0 -10 11 -15 35 -15 19 0 35 -4 35 -9 0 -6 12 -4 26 4 15 7 32 11 39 9 14 -6
41 23 31 33 -3 3 -27 8 -53 9 -27 2 -69 5 -95 8 -25 2 -49 2 -52 -1z"/>
<path d="M1205 344 c-9 -9 -13 -19 -10 -23 4 -3 11 2 16 11 6 11 16 15 26 11
11 -4 14 -3 9 5 -10 16 -22 15 -41 -4z"/>
<path d="M1440 326 c0 -30 16 -36 88 -36 64 0 88 10 79 34 -7 18 -19 20 -65 7
-26 -8 -32 -7 -32 5 0 10 -5 12 -12 7 -19 -11 -38 -12 -38 -2 0 5 -4 9 -10 9
-5 0 -10 -11 -10 -24z"/>
<path d="M1246 321 c-17 -11 -35 -17 -40 -14 -6 3 -7 2 -3 -2 4 -5 35 -10 67
-11 46 -2 62 1 69 14 8 14 10 14 26 -1 19 -19 30 -22 19 -6 -3 6 0 15 7 20 9
6 -4 9 -38 9 -28 0 -57 2 -65 5 -7 3 -26 -4 -42 -14z"/>
</g>
</svg>
